<svg id="svg" version="1.1" xmlns="http://www.w3.org/2000/svg" xmlns:xlink="http://www.w3.org/1999/xlink" width="400" height="400" viewBox="0, 0, 400,400"><g id="svgg"><path id="path0" d="M17.600 4.800 C 17.600 5.020,16.869 5.200,15.976 5.200 C 14.996 5.200,14.451 5.358,14.600 5.600 C 14.740 5.827,14.404 6.000,13.824 6.000 C 13.261 6.000,12.800 6.180,12.800 6.400 C 12.800 6.620,12.530 6.800,12.200 6.800 C 11.870 6.800,11.600 6.980,11.600 7.200 C 11.600 7.420,11.234 7.600,10.787 7.600 C 10.339 7.600,9.452 8.095,8.815 8.700 C 8.177 9.305,7.103 10.219,6.428 10.730 C 5.753 11.242,5.200 11.835,5.200 12.047 C 5.200 12.260,4.840 12.820,4.400 13.292 C 3.960 13.764,3.600 14.387,3.600 14.675 C 3.600 14.964,3.420 15.200,3.200 15.200 C 2.980 15.200,2.800 15.560,2.800 16.000 C 2.800 16.440,2.620 16.800,2.400 16.800 C 2.180 16.800,2.000 17.160,2.000 17.600 C 2.000 18.040,1.820 18.400,1.600 18.400 C 1.380 18.400,1.200 18.940,1.200 19.600 C 1.200 20.260,1.020 20.800,0.800 20.800 C 0.539 20.800,0.400 26.867,0.400 38.200 C 0.400 49.533,0.539 55.600,0.800 55.600 C 1.020 55.600,1.200 56.140,1.200 56.800 C 1.200 57.460,1.335 58.001,1.500 58.003 C 1.859 58.007,2.800 59.944,2.800 60.680 C 2.800 60.966,2.980 61.200,3.200 61.200 C 3.420 61.200,3.600 61.480,3.600 61.822 C 3.600 62.632,10.291 69.200,11.117 69.200 C 11.700 69.200,13.594 70.193,13.597 70.500 C 13.599 70.665,13.949 70.800,14.376 70.800 C 14.803 70.800,15.264 70.980,15.400 71.200 C 15.536 71.420,16.436 71.600,17.400 71.600 C 18.364 71.600,19.263 71.779,19.399 71.998 C 19.740 72.550,292.400 72.552,292.400 71.999 C 292.400 71.780,293.120 71.600,294.000 71.600 C 294.880 71.600,295.600 71.420,295.600 71.200 C 295.600 70.980,296.140 70.800,296.800 70.800 C 297.460 70.800,298.001 70.665,298.003 70.500 C 298.007 70.163,299.925 69.200,300.591 69.200 C 300.829 69.200,301.283 68.840,301.600 68.400 C 301.917 67.960,302.315 67.600,302.484 67.600 C 302.769 67.600,303.124 67.335,305.260 65.530 C 305.696 65.162,306.022 64.741,305.985 64.595 C 305.948 64.448,306.267 63.927,306.694 63.436 C 307.629 62.360,308.800 60.083,308.800 59.339 C 308.800 59.042,308.935 58.799,309.100 58.797 C 309.552 58.792,310.400 56.769,310.400 55.697 C 310.400 55.169,310.576 54.862,310.800 55.000 C 311.064 55.163,311.200 49.537,311.200 38.424 C 311.200 27.475,311.060 21.600,310.800 21.600 C 310.580 21.600,310.400 21.060,310.400 20.400 C 310.400 19.740,310.220 19.200,310.000 19.200 C 309.780 19.200,309.600 18.660,309.600 18.000 C 309.600 17.340,309.420 16.800,309.200 16.800 C 308.980 16.800,308.800 16.440,308.800 16.000 C 308.800 15.560,308.632 15.200,308.427 15.200 C 308.222 15.200,307.934 14.822,307.787 14.361 C 307.519 13.513,307.026 12.874,305.200 11.002 C 303.113 8.862,302.557 8.400,302.069 8.400 C 301.793 8.400,301.180 8.040,300.708 7.600 C 300.236 7.160,299.613 6.800,299.325 6.800 C 299.036 6.800,298.800 6.620,298.800 6.400 C 298.800 6.180,298.260 6.000,297.600 6.000 C 296.940 6.000,296.400 5.820,296.400 5.600 C 296.400 5.380,295.860 5.200,295.200 5.200 C 294.540 5.200,294.000 5.020,294.000 4.800 C 294.000 4.534,247.667 4.400,155.800 4.400 C 63.933 4.400,17.600 4.534,17.600 4.800 M18.400 220.400 C 18.400 220.620,17.680 220.800,16.800 220.800 C 15.920 220.800,15.200 220.980,15.200 221.200 C 15.200 221.420,14.660 221.600,14.000 221.600 C 13.340 221.600,12.800 221.780,12.800 222.000 C 12.800 222.220,12.564 222.400,12.275 222.400 C 11.987 222.400,11.364 222.760,10.892 223.200 C 10.420 223.640,9.856 224.000,9.639 224.000 C 9.423 224.000,8.965 224.400,8.623 224.889 C 8.280 225.378,8.000 225.651,8.000 225.495 C 8.000 225.339,7.190 226.045,6.200 227.064 C 5.210 228.083,4.400 229.081,4.400 229.282 C 4.400 229.483,4.192 229.519,3.938 229.362 C 3.664 229.193,3.585 229.251,3.742 229.506 C 3.888 229.742,3.736 230.207,3.404 230.539 C 3.072 230.871,2.800 231.426,2.800 231.771 C 2.800 232.117,2.620 232.400,2.400 232.400 C 2.180 232.400,2.000 232.760,2.000 233.200 C 2.000 233.640,1.820 234.000,1.600 234.000 C 1.380 234.000,1.200 234.529,1.200 235.176 C 1.200 235.823,1.020 236.464,0.800 236.600 C 0.250 236.940,0.250 271.600,0.800 271.600 C 1.020 271.600,1.200 272.050,1.200 272.600 C 1.200 273.150,1.380 273.600,1.600 273.600 C 1.820 273.600,2.000 273.960,2.000 274.400 C 2.000 274.840,2.180 275.200,2.400 275.200 C 2.620 275.200,2.800 275.560,2.800 276.000 C 2.800 276.440,2.980 276.800,3.200 276.800 C 3.420 276.800,3.600 277.066,3.600 277.390 C 3.600 278.690,11.163 285.600,12.585 285.600 C 12.949 285.600,13.136 285.780,13.000 286.000 C 12.856 286.233,13.263 286.400,13.976 286.400 C 14.649 286.400,15.200 286.580,15.200 286.800 C 15.200 287.020,15.740 287.200,16.400 287.200 C 17.060 287.200,17.600 287.379,17.600 287.598 C 17.600 287.861,64.329 287.997,155.400 287.999 C 247.262 288.001,293.200 287.869,293.200 287.601 C 293.200 287.381,293.920 287.200,294.800 287.200 C 295.680 287.200,296.400 287.020,296.400 286.800 C 296.400 286.580,296.951 286.400,297.624 286.400 C 298.337 286.400,298.744 286.233,298.600 286.000 C 298.458 285.770,298.830 285.597,299.476 285.594 C 300.349 285.589,300.466 285.501,300.000 285.200 C 299.490 284.871,299.508 284.811,300.117 284.806 C 300.818 284.800,301.265 284.519,302.829 283.100 C 303.253 282.715,303.791 282.400,304.024 282.400 C 304.257 282.400,304.353 282.247,304.237 282.060 C 304.122 281.873,304.471 281.483,305.014 281.193 C 305.556 280.902,306.000 280.395,306.000 280.066 C 306.000 279.736,306.117 279.584,306.261 279.727 C 306.404 279.871,306.731 279.586,306.988 279.094 C 307.245 278.602,307.938 277.339,308.528 276.286 C 309.118 275.233,309.600 274.108,309.600 273.786 C 309.600 273.464,309.780 273.200,310.000 273.200 C 310.220 273.200,310.400 272.671,310.400 272.024 C 310.400 271.377,310.580 270.736,310.800 270.600 C 311.056 270.442,311.200 264.463,311.200 253.976 C 311.200 243.325,311.060 237.600,310.800 237.600 C 310.580 237.600,310.400 236.970,310.400 236.200 C 310.400 235.430,310.220 234.800,310.000 234.800 C 309.780 234.800,309.600 234.451,309.600 234.024 C 309.600 233.597,309.420 233.136,309.200 233.000 C 308.980 232.864,308.800 232.303,308.800 231.753 C 308.800 231.203,308.639 230.852,308.443 230.974 C 308.246 231.095,307.962 230.701,307.810 230.098 C 307.544 229.039,303.473 224.800,302.722 224.800 C 302.519 224.800,302.464 224.620,302.600 224.400 C 302.741 224.172,302.396 224.000,301.800 224.000 C 301.204 224.000,300.859 223.828,301.000 223.600 C 301.136 223.380,300.877 223.200,300.424 223.200 C 299.971 223.200,299.600 223.020,299.600 222.800 C 299.600 222.580,299.240 222.400,298.800 222.400 C 298.360 222.400,298.000 222.220,298.000 222.000 C 298.000 221.780,297.640 221.600,297.200 221.600 C 296.760 221.600,296.400 221.420,296.400 221.200 C 296.400 220.980,295.680 220.800,294.800 220.800 C 293.920 220.800,293.200 220.620,293.200 220.400 C 293.200 220.134,247.133 220.000,155.800 220.000 C 64.467 220.000,18.400 220.134,18.400 220.400 " stroke="none" fill="#64b4c4" fill-rule="evenodd"></path><path id="path1" d="M195.002 112.403 C 195.149 112.641,194.595 112.800,193.624 112.800 C 192.731 112.800,192.000 112.980,192.000 113.200 C 192.000 113.420,191.640 113.600,191.200 113.600 C 190.760 113.600,190.400 113.780,190.400 114.000 C 190.400 114.220,190.040 114.400,189.600 114.400 C 189.160 114.400,188.800 114.580,188.800 114.800 C 188.800 115.020,188.522 115.200,188.182 115.200 C 187.842 115.200,187.114 115.650,186.564 116.200 C 186.014 116.750,185.392 117.200,185.181 117.200 C 184.645 117.200,181.600 120.397,181.600 120.960 C 181.600 121.215,181.240 121.683,180.800 122.000 C 180.360 122.317,180.000 122.897,180.000 123.288 C 180.000 123.680,179.820 124.000,179.600 124.000 C 179.380 124.000,179.200 124.360,179.200 124.800 C 179.200 125.240,179.020 125.600,178.800 125.600 C 178.580 125.600,178.400 126.050,178.400 126.600 C 178.400 127.150,178.220 127.600,178.000 127.600 C 177.780 127.600,177.600 128.320,177.600 129.200 C 177.600 130.080,177.420 130.800,177.200 130.800 C 176.940 130.800,176.800 136.133,176.800 146.000 C 176.800 154.622,176.954 161.200,177.156 161.200 C 177.352 161.200,177.622 161.830,177.756 162.600 C 177.890 163.370,178.110 164.630,178.244 165.400 C 178.378 166.170,178.648 166.800,178.844 166.800 C 179.040 166.800,179.200 167.160,179.200 167.600 C 179.200 168.040,179.380 168.400,179.600 168.400 C 179.820 168.400,180.000 168.655,180.000 168.966 C 180.000 169.277,180.540 170.042,181.200 170.665 C 181.860 171.288,182.400 171.991,182.400 172.227 C 182.400 172.731,183.934 174.125,185.266 174.830 C 185.780 175.103,186.491 175.657,186.847 176.063 C 187.203 176.468,187.788 176.800,188.147 176.800 C 188.506 176.800,188.800 176.980,188.800 177.200 C 188.800 177.420,189.160 177.600,189.600 177.600 C 190.040 177.600,190.400 177.780,190.400 178.000 C 190.400 178.220,190.850 178.400,191.400 178.400 C 191.950 178.400,192.400 178.580,192.400 178.800 C 192.400 179.020,193.120 179.200,194.000 179.200 C 194.880 179.200,195.600 179.380,195.600 179.600 C 195.600 179.866,226.867 180.000,288.600 180.000 C 350.333 180.000,381.600 179.866,381.600 179.600 C 381.600 179.380,382.320 179.200,383.200 179.200 C 384.080 179.200,384.800 179.020,384.800 178.800 C 384.800 178.580,385.340 178.400,386.000 178.400 C 386.660 178.400,387.200 178.220,387.200 178.000 C 387.200 177.780,387.571 177.600,388.024 177.600 C 388.477 177.600,388.748 177.440,388.627 177.244 C 388.506 177.048,389.010 176.602,389.747 176.252 C 391.408 175.464,396.400 170.625,396.400 169.803 C 396.400 169.472,396.580 169.200,396.800 169.200 C 397.020 169.200,397.200 168.840,397.200 168.400 C 397.200 167.960,397.380 167.600,397.600 167.600 C 397.820 167.600,398.000 167.240,398.000 166.800 C 398.000 166.360,398.180 166.000,398.400 166.000 C 398.620 166.000,398.800 165.475,398.800 164.833 C 398.800 164.192,398.976 163.607,399.190 163.533 C 399.760 163.339,399.801 129.241,399.233 128.673 C 398.995 128.435,398.800 127.736,398.800 127.120 C 398.800 126.504,398.620 126.000,398.400 126.000 C 398.180 126.000,398.000 125.730,398.000 125.400 C 398.000 125.070,397.820 124.800,397.600 124.800 C 397.380 124.800,397.200 124.440,397.200 124.000 C 397.200 123.560,397.020 123.200,396.800 123.200 C 396.580 123.200,396.400 122.938,396.400 122.618 C 396.400 121.916,389.947 115.200,389.273 115.200 C 389.013 115.200,388.800 115.020,388.800 114.800 C 388.800 114.580,388.440 114.400,388.000 114.400 C 387.560 114.400,387.200 114.259,387.200 114.087 C 387.200 113.915,386.705 113.734,386.100 113.684 C 385.495 113.634,384.940 113.415,384.867 113.197 C 384.793 112.978,384.219 112.800,383.590 112.800 C 382.962 112.800,382.336 112.619,382.199 112.398 C 382.034 112.131,350.582 111.998,288.354 112.002 C 226.583 112.005,194.840 112.142,195.002 112.403 M107.600 328.000 C 107.600 328.220,106.981 328.400,106.224 328.400 C 105.467 328.400,104.736 328.580,104.600 328.800 C 104.464 329.020,103.823 329.200,103.176 329.200 C 102.529 329.200,102.000 329.380,102.000 329.600 C 102.000 329.820,101.640 330.000,101.200 330.000 C 100.760 330.000,100.400 330.180,100.400 330.400 C 100.400 330.620,100.164 330.800,99.875 330.800 C 99.587 330.800,98.964 331.160,98.492 331.600 C 98.020 332.040,97.436 332.400,97.194 332.400 C 96.646 332.400,93.227 336.040,93.211 336.639 C 93.205 336.880,92.827 337.508,92.371 338.033 C 91.915 338.559,91.443 339.487,91.321 340.095 C 91.199 340.703,90.942 341.200,90.750 341.200 C 90.558 341.200,90.400 341.571,90.400 342.024 C 90.400 342.477,90.220 342.736,90.000 342.600 C 89.767 342.456,89.600 342.863,89.600 343.576 C 89.600 344.249,89.420 344.800,89.200 344.800 C 88.940 344.800,88.800 350.667,88.800 361.600 C 88.800 372.533,88.940 378.400,89.200 378.400 C 89.420 378.400,89.600 378.940,89.600 379.600 C 89.600 380.260,89.780 380.800,90.000 380.800 C 90.220 380.800,90.400 381.340,90.400 382.000 C 90.400 382.660,90.536 383.200,90.702 383.200 C 90.869 383.200,91.418 384.100,91.922 385.200 C 92.427 386.300,93.041 387.200,93.287 387.200 C 93.532 387.200,93.621 387.312,93.485 387.449 C 93.348 387.585,93.942 388.350,94.805 389.149 C 97.182 391.347,97.522 391.600,98.095 391.600 C 98.386 391.600,98.883 391.960,99.200 392.400 C 99.517 392.840,100.097 393.200,100.488 393.200 C 100.880 393.200,101.200 393.380,101.200 393.600 C 101.200 393.820,101.740 394.000,102.400 394.000 C 103.060 394.000,103.600 394.180,103.600 394.400 C 103.600 394.620,104.140 394.800,104.800 394.800 C 105.460 394.800,106.000 394.980,106.000 395.200 C 106.000 395.466,152.333 395.600,244.200 395.600 C 336.067 395.600,382.400 395.466,382.400 395.200 C 382.400 394.980,383.120 394.800,384.000 394.800 C 384.880 394.800,385.600 394.620,385.600 394.400 C 385.600 394.180,385.960 394.000,386.400 394.000 C 386.840 394.000,387.200 393.820,387.200 393.600 C 387.200 393.380,387.560 393.200,388.000 393.200 C 388.440 393.200,388.800 393.020,388.800 392.800 C 388.800 392.580,389.171 392.400,389.624 392.400 C 390.077 392.400,390.336 392.220,390.200 392.000 C 390.064 391.780,390.239 391.600,390.589 391.600 C 390.939 391.600,391.329 391.330,391.455 391.000 C 391.582 390.670,391.896 390.400,392.154 390.400 C 392.614 390.400,394.000 389.016,394.000 388.556 C 394.000 388.427,394.540 387.817,395.200 387.200 C 395.860 386.583,396.400 385.791,396.400 385.440 C 396.400 385.088,396.580 384.800,396.800 384.800 C 397.020 384.800,397.200 384.530,397.200 384.200 C 397.200 383.870,397.380 383.600,397.600 383.600 C 397.820 383.600,398.000 383.150,398.000 382.600 C 398.000 382.050,398.180 381.600,398.400 381.600 C 398.620 381.600,398.800 381.075,398.800 380.433 C 398.800 379.792,398.975 379.207,399.189 379.133 C 399.764 378.936,399.812 344.271,399.238 344.079 C 398.997 343.999,398.800 343.498,398.800 342.967 C 398.800 342.435,398.620 342.000,398.400 342.000 C 398.180 342.000,398.000 341.640,398.000 341.200 C 398.000 340.760,397.820 340.400,397.600 340.400 C 397.380 340.400,397.200 340.040,397.200 339.600 C 397.200 339.160,397.020 338.800,396.800 338.800 C 396.580 338.800,396.400 338.527,396.400 338.194 C 396.400 337.524,390.655 331.600,390.006 331.600 C 389.783 331.600,389.600 331.420,389.600 331.200 C 389.600 330.980,389.240 330.800,388.800 330.800 C 388.360 330.800,388.000 330.620,388.000 330.400 C 388.000 330.180,387.640 330.000,387.200 330.000 C 386.760 330.000,386.400 329.864,386.400 329.697 C 386.400 329.271,383.450 328.400,382.006 328.400 C 381.343 328.400,380.800 328.220,380.800 328.000 C 380.800 327.734,335.000 327.600,244.200 327.600 C 153.400 327.600,107.600 327.734,107.600 328.000 " stroke="none" fill="#2c7c94" fill-rule="evenodd"></path><path id="path2" d="" stroke="none" fill="#58b8ac" fill-rule="evenodd"></path><path id="path3" d="" stroke="none" fill="#58b8ac" fill-rule="evenodd"></path><path id="path4" d="" stroke="none" fill="#58b8ac" fill-rule="evenodd"></path></g></svg>